<svg xmlns="http://www.w3.org/2000/svg" xmlns:xlink="http://www.w3.org/1999/xlink" width="899" height="657" viewBox="0 0 899 657"><defs><clipPath id="a"><rect width="899" height="657" transform="translate(53.42 -35)" fill="none"/></clipPath></defs><g transform="translate(-53.42 35)"><g clip-path="url(#a)"><circle cx="225" cy="225" r="225" transform="translate(276.42)" fill="#ff7bac" opacity="0.83"/><circle cx="225" cy="225" r="225" transform="translate(109.42 104)" fill="#faff9f" opacity="0.83"/><circle cx="225" cy="225" r="225" transform="translate(314.42 151)" fill="#00a99d" opacity="0.83"/><path d="M239.28,370c2.85,3.32,5.62,6.74,8.58,10a21.22,21.22,0,0,0,16.86,6.91c3.84-.09,8.16-1.89,11.37-.64,3.05,1.2,4.55,5.85,7.41,8.13a71.668,71.668,0,0,0,12.58,7.86c8.09,4.07,16.21,7.93,23,14.16,7.15,6.57,14.59,12.87,24.26,15.53,6,1.66,9.35,6.71,13.47,10.66,6.64,6.37,13.82,9.7,23.84,6.65,6.73-2.05,10.93-8.06,9.36-15.14-1.45-6.59-4.36-12.93-7.27-19.08-1.61-3.43-4.29-6.46-6.92-9.28-3.62-3.89-8.38-4.85-13.49-3.68-4.46-9-11.86-14-21.1-15.75-7.92-1.54-14.53-5.58-20.88-9.89A227.8,227.8,0,0,1,298.11,359c-3.78-3.32-6.53-7.82-9.83-11.7-3.65-4.27-7.42-8.43-11.07-12.7-.38-.44-.29-1.29-.42-1.95l1.55-1.48c5.25.33,8.93,3.65,12.46,6.93,6.34,5.9,11.71,6.2,19.94,3.43A84.56,84.56,0,0,0,335.34,328c.35-.27.93-.24,2.16-.53-2.53,3.09-4.58,5.58-6.63,8.07l.2,1.26c10.66,0,21.33.2,32-.13,2.84-.09,5.6-1.87,8.45-2.75,1.2-.37,2.91-1,3.72-.48,13.31,8.56,28.3,7.55,43,7.33,4.49-.07,6.88,1.58,8.53,5,3.07,6.46,8.88,10.14,14.23,14.21,6.81,5.17,14.06,9.78,20.91,14.91,2,1.48,3.21,3.94,4.79,5.93a9.82,9.82,0,0,0,2.09,2.08c-2.09-9-9.07-13.79-15.66-19-2.45-1.94-4.43-4.46-6.62-6.72l.73-.74c5.78,4.58,12,8.76,17.18,13.92a21.25,21.25,0,0,1,5.62,11c1,6.36,5.27,9.67,10,12,6.38,3.11,13.32,5.33,20.71,4.27a9.36,9.36,0,0,0,4.15-1.32c5.46-4,5.47-7.49-1.2-11.95-8.27-5.54-12-14.16-16.47-22.19-5.89-10.67-12.17-20.48-23.24-26.66-3.36-1.87-7.61-3.43-9-8.25-.94-3.32-4-2.68-6.5-1.41a24.242,24.242,0,0,0-3.06,2.25c-.13-2-.3-3.29-.29-4.58A22.062,22.062,0,0,0,438.758,308c-1.568-1.678-4.608-2-7-2.828-6.33-2.05-12.82-3.69-19-6.06-9.75-3.73-19.59-6.81-30.94-7l47,17.26-.58,1.85a113.1,113.1,0,0,1-11.12-3.51c-3.79-1.62-7.12-4.39-11-5.74-9.36-3.28-19-6.47-29-4.57-6.06,1.15-8.61-1.59-10.89-6.09a26.461,26.461,0,0,1-2-3.65q4.08,2.7,8.17,5.39l.93-.65c-1.39-2.27-2.3-5.19-4.28-6.66a35.12,35.12,0,0,0-9.79-4.64c-4.59-1.54-9.36-2.57-14.06-3.82l14.95,1c-3.19-3.71-5.49-6.76-8.17-9.43-7-6.95-16-8.1-25.16-7.47-8.08.55-16.07,2.34-24.15,2.78-9.48.51-19,.23-28.51.12-2,0-4-.78-6-1.2.15,1.38.55,2.08,1.08,2.2,10.38,2.38,20.7,5.19,31.21,6.84,8.67,1.36,17.59,1.07,26.35,2,6.22.66,12.35,2.11,18.52,3.21-9.49-.44-19-.53-28.45-1.4a255.187,255.187,0,0,1-30.25-4.14c-9.91-2.14-19.49-5.86-29.26-8.75-11.61-3.43-23.34-6.18-35.53-6.66-10.14-.39-20.27-1.4-30.41-1.59-5.16-.1-10.38,1.61-15.51,1.33a35.49,35.49,0,0,1-13.24-3.42,25.44,25.44,0,0,0-22.67-.3c-8.71,4.15-16.53,10.16-24.81,15.24-2.64,1.62-5.78,2.49-8.21,4.34-4.7,3.55-9.18,7.42-13.52,11.41-9.81,9-19.88,17.82-33.1,21.28-8.32,2.18-17,2.81-25.46,4.69-6.85,1.52-13.53,3.84-20.27,5.84A99.217,99.217,0,0,1,0,318.79c4-2.24,8-4.6,12.12-6.68,14.68-7.45,30.65-11.28,46.08-16.65,6.92-2.41,13.29-7.17,19.08-11.89,8.13-6.64,15.51-14.08,25.3-18.56,8.83-4,17-9.46,26-13.24,9.31-3.94,19-6.47,29.59-5.29,9.26,1,18.7.47,28.06.6,9.64.13,19.46-.86,28.88.63,11.33,1.8,22.33,5.7,33.48,8.69a38.118,38.118,0,0,0,6,1.56c9.3.9,18.63,2.3,27.93,2.24,10.7-.07,21.39-1.49,32.09-2.31,11.3-.87,22.49-.83,33.45,2.87,5.81,2,8.7,7,12.68,10.81s7.73,8.31,11.68,12.4a5.92,5.92,0,0,0,2.91,1.43c5.62,1.21,11.23,2.49,16.9,3.4,11.4,1.83,22,6.05,32.43,10.68a24.561,24.561,0,0,0,6.43,1.46c9,1.3,15.76,5.46,20.8,13.49,3.26,5.2,8.6,9.11,13,13.56,4.63,4.65,9.16,9.42,14,13.85,7.32,6.72,12.16,15,16.69,23.71,3.42,6.59,8.87,12.12,13.3,18.2s2.7,13.36-4.75,15.35a38.43,38.43,0,0,1-24.7-1.49c-6.45-2.67-11.36-7.87-15.71-13.58-3.72-4.88-8.39-9-12.64-13.51l-1.85,1c1.23,4.75,2.05,9.66,3.8,14.21,2.68,7,6.16,13.62,8.95,20.55.83,2.07.73,4.64.64,7A42.91,42.91,0,0,0,467.1,434a14.08,14.08,0,0,1,.76,3.15l-2.6,3.21c-1.64-3.38-2.48-7.27-7.08-8.4-1.1-.27-2.25-2.56-2.41-4-.65-5.83-.81-11.72-1.38-17.56a38,38,0,0,0-1.66-8.12c-1.55-4.71-5.28-7.07-9.9-8.3a7.68,7.68,0,0,1-2.54-1.31C433.57,387.51,431,380,429.4,372.3c-1.53-7.46-4.14-14.29-9.73-19.36-2.94-2.67-6-5.89-11.07-5.23-11.41,1.51-21.78-2.72-32.34-6.17-4.64-1.52-9.68-1.81-14.54-2.66l-.8,1.88c2.54,2,4.82,4.56,7.68,5.85,7.42,3.33,15.11,6.08,22.67,9.11,6.05,2.42,11.67,5.45,13.66,12.31,1.22,4.19,2.06,8.49,3.18,12.71,2.61,9.78,8.51,17,17.24,22a7.19,7.19,0,0,1,2.81,3.95c1.38,4.55,1.53,9.69,3.73,13.73a163.4,163.4,0,0,0,14,21.07c2.51,3.27,6.43,5.47,9.71,8.15l-2.1,2-7.9-3.47c-.22.18-.6.33-.61.5-.45,8.88-5.44,10.11-16.32,8.52-5.9-.85-10.17-5.19-11.86-11-1.62-5.5-2.35-11.26-3.39-16.92-.62-3.44-.74-6.59-4.29-9.19-5.92-4.32-8.82-11.17-11.49-17.84-2.28-5.69-5.78-9.79-11.59-12.25-3.25-1.38-6-4-9.39-6.46.62,6.62.38,13.43,2.15,19.68,1.21,4.28,5.58,7.56,7.87,11.66,3.44,6.17,7.12,12.22,7.67,19.7.82,11-8.35,19.38-17.81,19.52a39,39,0,0,1-13.34-2c-3.51-1.24-4.12.09-5,2.67a26.572,26.572,0,0,1-3.28,7.3c-3.68,5-12.49,5-16.6.49-6.94-7.65-8.84-16.23-5.38-26,.65-1.84.66-3.3-1.71-5-7.17-5.19-13.57-11.45-20.69-16.71a64,64,0,0,0-14.5-8c-9.78-3.82-19.65-7.54-30.28-8.57-3.35-.33-6.58-1.85-9.94-2.29-2.51-.33-5.12.25-7.7.34-1.84.06-3.68,0-5.53,0l-12.83-13.15-.87-2.72,1.43-1.26a51.84,51.84,0,0,1,4.9,1.75c2,.92,3.9,2.07,6.52,2.42-1.09-2.54-2.3-5-3.22-7.63a20.541,20.541,0,0,1-.57-4.19Zm115.17-23.71-1,1.4c3.53,3.8,6.93,7.72,10.6,11.38,5.23,5.2,11.25,9.72,15.81,15.43,4.41,5.52,8.92,10.23,15.43,13.27,4.87,2.27,8,6.62,9.83,11.82,2.28,6.59,5.47,12.87,10.94,17.18,4.81,3.79,5.27,8,4.38,13.41-1.73,10.49,3.68,17.43,10.87,22.44,1.8,1.26,5.22.5,7.81.12.68-.1,1.74-2.4,1.48-3.38-1.84-7-4-13.86-6.05-20.76-.07-.24-.39-.39-.55-.61a36.75,36.75,0,0,1-7.22-18.88,6.84,6.84,0,0,0-2.28-4.2c-5.19-4.32-10.8-8.05-14.39-14.14-4-6.74-9.13-12.74-10.53-20.86a10.81,10.81,0,0,0-4.14-6.63,87.759,87.759,0,0,0-15-7.72c-5.42-2.18-11.2-3.46-16.74-5.35-3.21-1.05-6.19-2.58-9.25-3.9Zm-24.18,13.25c.76,2.15.94,3.42,1.59,4.36,3.23,4.64,6.8,9,6.93,15.18,0,1.07,1.46,2.63,2.59,3.07,4.3,1.67,9,2.44,13.06,4.55,5.22,2.73,9.95,6.41,14.86,9.73,1.27.86,2.41,1.91,4.05,3.21.15-1.31.21-1.82.27-2.33,1-8.31-3-15.33-5.63-22.76-1.32-3.72-.95-8-5.32-10.26-5.34-2.79-7.19-5.35-12.67-4.42,12.91,5.9,14.85,18.44,19.21,29.52a27.131,27.131,0,0,1-6.39-3.38c-5.2-3.8-11.34-6.64-13.79-13.36a4.09,4.09,0,0,0-2.49-1.77c-5.62-1.76-10.38-4.59-13.44-9.83-.28-.47-1.1-.62-2.83-1.49Zm4,86.19c-.07,7,1.88,12.93,7.94,17.06a7.12,7.12,0,0,0,8.74,0c3.38-2.32,3.51-5.69,1.57-8.64-4.29-6.49-9-12.7-13.61-19-1.57-2.14-2.82-1.44-3.25.76-.66,3.28-.94,6.57-1.39,9.84Zm-18-81.56c5.43,5.81,10.38,10.29,17.74,11.55a65.161,65.161,0,0,0-5.8-9.88c-.78-1.15-1.76-3.08-2.65-3.08-2.77.03-5.56.79-9.31,1.43Z" transform="translate(0 -35)"/><path d="M837.47,383.94c-2,1.77-3.82,3.88-6.09,5.22a94.3,94.3,0,0,1-9.53,4.32l.48,1.41c5-1.53,10.06-3.07,15.1-4.57,1.69-.5,3.41-.88,5.12-1.32l23.06,23.05c.34,4.74-4,6.28-6.66,8-7.18,4.55-15,8.14-22.5,12.12-4.28,2.26-9,4-12.72,6.95a30.18,30.18,0,0,1-16.53,6.18,73.749,73.749,0,0,0-13.12,2.8c-.94.26-1.92,1.93-2.1,3.08-.94,6.06-2.54,11.61-7.61,15.77-1.08.88-1.21,3.48-1,5.21,1.09,11,2.49,22.05-.7,32.86-1.63,5.53-5.15,10.48-10.45,12.92-8.81,4.06-13.67,1.09-19.5-8.28-4.82-7.74-5.68-16-6.24-24.69-.29-4.46-1.78-8.83-2.69-13.25a19.22,19.22,0,0,1,2-13.11c1.83-3.61,2.18-8,2.83-10.59-4.08,3.58-8.85,7.63-13.42,11.9a6.14,6.14,0,0,0-1.92,4c.1,8.09-.73,16.26-4.9,23.05s-3.47,13.71-3.33,20.86c.18,9.81-4.06,17.35-12.45,22.3a14.08,14.08,0,0,1-13.85.65c-2.73-1.35-4.46-1-6.35,1.38-3.18,4-10,4.62-15.08,3.68-9-1.67-10.75-7.64-12.3-15.31-2.33-11.62-6.31-22.9-8.86-34.49-1-4.52-.17-9.48.16-14.22.43-6.16,1.35-12.29,1.64-18.45.05-1.05-1.81-2.67-3.12-3.21-9.73-4-15.76-11.41-17.57-21.45-.57-3.13,1.69-8,4.25-10.2,5.66-4.95,12.58-8.42,18.53-13.08,7.68-6,15.86-11.68,20.73-20.61,1.52-2.81,2.2-4.62-2.07-5.92-3.33-1-6.09-3.84-9.2-5.68-1.88-1.11-3.92-2.57-6-2.69-7.57-.45-15.18-.11-22.73-.67a92.782,92.782,0,0,1-16.55-2.8c-4.23-1.1-7.84.15-11.66,1.26-6.93,2-13.79,4.69-20.87,5.56-9,1.09-17,4.42-25.5,6.85-8,2.31-16.82,1.88-25.29,2.53-.81.06-1.7-.79-2.54-1.21l-6.46-6.32c2.46.16,4.91.43,7.37.47,3.68.06,7.49.58,11-.2a129.832,129.832,0,0,0,16.7-5.26c4.18-1.55,8.09-3.79,12.24-5.41a22,22,0,0,1,6.23-1.08c10.32-.78,19.67-3.68,27.24-11.26.91-.9,3.64-.71,5.18-.12,5.4,2.06,10.51,5,16,6.69,7.05,2.16,14.29,4.12,21.84,3,2.63-.4,5.22-1.09,7.69-1.61l-2.2-12.76c4.58,6,8.41,11.07,12.39,16.08,6.11,7.71,18.75,10.68,29,6.56-4.9-4-10.26-7.62-10.8-15.52a32.8,32.8,0,0,0,17.9,14.08c5.57,1.92,15-3.17,15.59-9.1.15-1.51-1.56-3.2-2.44-4.79a100.729,100.729,0,0,1-5.43-10.85c10.26,2,18.66-.95,26.61-6.66-3,3.32-6.2,6.52-9,10-2.13,2.6-4.55,5.31-5.59,8.4-5.14,15.26-16,24.64-30.33,30.75a15.939,15.939,0,0,0-2.89,2.13l4.36,3.86c-7.72-4.8-13,0-18.54,4a6.911,6.911,0,0,1-3,1.19c-6.84,1-11.45,6-16.83,9.49-4.7,3.07-8.76,7.2-13.61,10-7.73,4.42-8.86,12.32-3.46,19.44,9.38,12.38,21.72,13.52,35.28,10.6,8.1-1.74,14.35-7,19.89-12.91,8.57-9.15,16.83-18.59,25.47-27.67a109.38,109.38,0,0,1,30.91-23.13,49.838,49.838,0,0,1,16.08-4.63c6.88-.78,10.59-5.93,11.08-11.59.12-1.47.52-2.91.95-5.23,3.37,5.14,6.9,9.08,12.38,10.06,3.8.69,7.82,1.43,11.55.88,4.81-.7,9.43-2.67,14.13-4.09L834,379.87Q835.74,381.9,837.47,383.94Zm-123,73v-.85c3.08-1.08,6.48-1.67,9.16-3.38a20,20,0,0,0,7-7.08c2.51-4.9,6-10,2.91-16.07a3.461,3.461,0,0,1,.42-2.87c1.31-2,3.76-3.69,4.13-5.79s-1-4.77-1.92-7.05c-.17-.42-2.24-.65-2.86-.19-4.56,3.34-9.14,6.71-13.4,10.43a102.663,102.663,0,0,0-9.57,9.77c-3.25,3.68-6.64,7.37-9.21,11.52-3.78,6.11-4.18,13.1-4.11,20.2,0,5.05-.89,10.11-1.52,15.15-.33,2.61-1.29,5.17-1.34,7.76,0,1.94,1.36,3.89,1.39,5.85.14,8.76,0,17.52,0,26.28a9.791,9.791,0,0,0,.5,3.18c1.2,3.39,4,4.26,7.22,4.28,3.93,0,7.77-.35,10-4.17,5.37-9.16,4-18.59,1.17-28.17-.6-2-1-5.39.14-6.36,10.13-8.93,9.57-20.66,9.68-32.44Zm-26.07-9.33c-1,.24-2.15.58-3.32.79-5.8,1-11.6,2.77-17.41,2.82-5.17,0-5.1-.77-5.58,4.4-.53,5.6-1.31,11.18-1.78,16.78-.34,4-1.17,8.27-.33,12.11,1.78,8.19,4.69,16.14,6.77,24.28,1.41,5.54,2.23,11.23,3.27,16.87.62,3.36,2.73,5.26,5.85,6.27,5.84,1.9,11.81-1.31,13.56-7.84,2.42-9,.24-18.09-1.53-27-.72-3.63-3.55-6.82-5.29-10.29-.37-.72-.56-2.08-.14-2.56,4.71-5.53,4.94-11.9,3.34-19.64l4.54,3.66c-.57-6.59-1.22-13.43-1.9-20.64Zm75,15.76c1.4,0,3.55-.07,5.69,0,5.94.23,9.74-3.33,10.47-9.26.76-6.1-5.4-14.59-11-16.51-6.89-2.36-10.83-.86-13.86,5.76a63.159,63.159,0,0,0-2.68,8c-.81,2.73-1,5.76-2.32,8.2-1.84,3.41-2.81,6.71-2.11,10.56,1.17,6.45,2.77,12.91,3.09,19.42a40.13,40.13,0,0,0,6.51,19.5c3.9,6.29,9.11,8.6,13.35,5a29.789,29.789,0,0,0,8.29-11c2.48-6.25,2.93-13.1-3.55-17.79-3.36-2.44-7.27-4.14-11.52-6.5,2.78,0,5.21.12,7.61-.1.44,0,1.29-1.78,1.05-2.15-2.88-4.4-5.95-8.74-8.99-13.12Zm41.07-29.55a13.264,13.264,0,0,0-2.72-.75C793.86,433,788,424,787.07,417.75c-.51-3.42-1.6-4.67-5.1-4.61-4.5.08-7.75-2.7-10.67-5.82l12.16,3,.6-1.47a35.113,35.113,0,0,1-3-2.08c-1.75-1.49-4.22-2.78-4.92-4.69-1.1-3-2.82-3.37-5.51-3.45-12.89-.36-23.27,5.85-34.44,12.86,12.38,6.13,14.63,17,14.54,29.29,10-7.81,20.59-9.54,30.72-2.67,4.05,2.74,7.45,3.63,11.6,2.86,4.51-.81,8.67-2.67,11.45-7.14ZM819,423.1l.58-.6c3.32.79,6.66,2.26,9.95,2.19s6.74-1.67,10.68-2.75c-3.33-2.37-6.83-3.63-8.17-6.08-2.56-4.65-6.29-4.48-10.41-4.42a28.359,28.359,0,0,1-6.19-.27,159.682,159.682,0,0,1-17.78-4.25c-4.46-1.47-8.55-4.08-13.7-6.64,5.22,8.62,8.73,17.11,16.5,23.26,7,5.56,14.27,7.6,22.82,6.08a16.159,16.159,0,0,0,2.79-1.13ZM682.71,390.65c7.38-7.07,20.22-5.71,27.62-15.44l-23.13,2.62Z" transform="translate(0 -35)"/><path d="M217.25,392.22c-4.57.78-7.64-2.3-11-4.47-9.2-6-14.89-15-20.49-24.12-3.06-4.95-5.19-6.09-9.91-3.11a258.166,258.166,0,0,0-24.56,17.16,148,148,0,0,0-18.49,17.88c-6.29,7.21-11.79,15.12-17.5,22.83C104,433.72,93.4,449.7,78.6,462.16c-4.92,4.14-9.52,8.67-14.32,13a6,6,0,0,1-2.9,1.13c12.13-13.54,22.75-27.94,29.7-46.29C78,441,65.28,450.63,49.9,456.52c.14-.7.07-1.4.37-1.68,8.3-7.52,17.29-14.41,24.79-22.66,6.77-7.44,11.87-16.38,17.84-24.58.85-1.17,2.34-2.53,3.62-2.63,11.55-.85,18.6-7.73,23.71-17.28,3.73-7,7.35-14,11-21a36.458,36.458,0,0,0,1.45-3.73l-1.37-1.23-10,12.31-1-1.14c7.88-15.45,20-25.69,37.52-30-6.87-6.62-12.45.14-18.75,1.51l.92-5.51c-9.54.86-16.23,7-25.25,10.6a97.64,97.64,0,0,1,6.67-7.7c2.26-2.12,5-3.78,7.43-5.68,1-.76,2.86-1.93,2.71-2.41a9,9,0,0,0-2.8-4.55,10.91,10.91,0,0,0-5.43-1.6c-9.63-.66-18.13,3.34-26.72,6.85-8.15,3.34-16.24,6.83-24.36,10.25l-.45-.91c5.25-3,10.52-5.9,15.76-8.88s10.38-6.32,15.81-9,11.34-4.85,17.93-7.61c-7.5-2.1-13.43,1.16-19.31,2.86s-11.35,5-17.28,7c3.74-2.8,7.85-5.24,11.14-8.5,3.68-3.64,7-7.87,4.93-13.54,6.16,1.21,11.82,2.5,17.55,3.42,7.71,1.23,15.48,2.09,23.21,3.27,14.45,2.19,27.28,7.43,36.1,20.07-9.39-8.22-19.63-14.55-32.3-15.3l-.48,1c2.8,1.36,5.59,2.74,8.41,4.06,12.85,6.05,22,15.89,29.37,27.82a243.08,243.08,0,0,0,16,22.86c4.07,5.15,9.91,8.22,16.31,10.09a83.1,83.1,0,0,1,7.82,3.17Z" transform="translate(0 -35)"/><path d="M865.61,412.05,842.55,389a38.665,38.665,0,0,1,4.18-3.63,63.079,63.079,0,0,0,23.12-27.55c6.68.22,13,1,19.15.52,13.29-1.09,26-4.44,37.62-11.35a61.107,61.107,0,0,0,6.78-5.18c1.71-1.37,3-1.46,5,0a42.59,42.59,0,0,0,9.26,4.93,131.8,131.8,0,0,0,12.72,4.41c22.7,6.75,45.94,6.26,69.35,5.35-7.41,3.59-15.52,5.05-23.55,5.87s-16.48.18-24.73.18l-.21,1.05c5.73,1.26,11.4,3,17.19,3.71,15.93,2,31.91,3.57,47.86,5.37a47.762,47.762,0,0,1,5.15,1.21,198.471,198.471,0,0,1-59.34,3c-13.49-1.28-26.82-4.08-40.26-5.9-12.35-1.66-24.8-2.44-37,.62a32.93,32.93,0,0,0-19.52,13.53c-2.23,3.19-6,5.29-8.88,8-6.39,6-12.67,12.18-19,18.24C867,411.87,866.2,411.87,865.61,412.05Z" transform="translate(0 -35)"/><path d="M743.07,289.56c.82-.85,1.47-2.14,2.47-2.5,5.47-2,11-5.14,16.57-5.36,9.48-.36,17.08-3.88,24.1-9.64,7.79-6.38,16.56-10.34,26.78-10.59,3-.08,6.07-.19,9.1-.08a51.45,51.45,0,0,0,35.19-11.83,56.2,56.2,0,0,1,29.12-12c6.8-.79,13.61-1.66,20.34-2.89a80.231,80.231,0,0,0,26.42-10.15c5.76-3.37,12.76-4.62,19.23-6.78a16.86,16.86,0,0,1,7.06-1.09c-.7.41-1.39.85-2.11,1.21l-22.52,11.08c-3.05,1.5-5.94,3.51-9.14,4.44-8,2.33-16.07,4.44-24.22,6.14-6.57,1.37-13.33,1.77-19.92,3A35.17,35.17,0,0,0,861.1,254.8c-4.59,5.37-10.4,8.8-16.91,11.35-5.29,2.06-10.2,1.65-15.8.47-11.95-2.5-24.2-2.79-35.37,3.54-4.65,2.64-8.74,6.28-13.12,9.42-4.12,3-8.46,5.57-13.74,5.6-7.34,0-13.76,2.76-19.92,6.41-.31.19-1-.23-1.5-.37Z" transform="translate(0 -35)"/><path d="M743.07,289.56l1.67,1.68c-1.9,1.42-3.63,3.18-5.71,4.22-10.55,5.28-21,10.76-31.85,15.37a72,72,0,0,1-18.3,4.62c-8.63,1.15-16,3.9-21.08,11.35a11.088,11.088,0,0,1-2.26,1.89l-2.2-4.63c-10.29,0-20.33.22-30.36-.08-6.79-.2-12.71,1.13-17.19,6.92-.29-2-.54-3.59-.85-5.69-5.18.91-10.2,1.86-15.25,2.66-7.45,1.19-12.55,6.76-18.92,9.9-5.54,2.74-11.62,4.4-17.5,6.44-.35.12-1-.6-1.52-.92l2.37-2.24c3-1.42,6.16-2.69,9.11-4.28,6.2-3.35,12.28-6.91,18.46-10.27a22,22,0,0,1,5.59-2.2,152.184,152.184,0,0,1,36.78-4.06c5,.12,9.92,0,14.87-.14,9.08-.26,17.68-1.89,26-6.12,4.32-2.2,10.07-1.35,14.91-2.79,8.28-2.46,16.4-5.53,24.49-8.57a101.733,101.733,0,0,0,10.24-4.85c4.94-2.52,9.8-5.21,14.77-7.66C740.41,289.58,741.82,289.73,743.07,289.56Z" transform="translate(0 -35)"/><path d="M834,379.87l-11.16-10.32c.22-.46.34-1.23.68-1.34,7.49-2.59,13.4-7.51,18.83-13,10-10.15,14.23-22.08,10.09-36.27-.88-3-2.77-5.7-4.66-9.47,12.85,11,14.7,24.75,14.19,39.29-.05,1.29-.86,2.55-1.32,3.83-3.85,3.89-7.71,7.76-11.54,11.68Q841.53,372,834,379.87Z" transform="translate(0 -35)"/><path d="M878.13,335.67l-3.53,3.11h-1.22c.62-11.74-3.54-21.89-9.9-31.3,4.26-1.93,8.1-3.46,11.75-5.37a29.51,29.51,0,0,0,14.18-15.47c.92-2.29,2.41-3.12,5.08-2.79,3.37.41,6.84.1,10.82.1-4.25,2.94-8.23,5.45-11.94,8.32-7.11,5.5-14.52,10.67-18.21,19.51-1.78,4.27-.48,7.63,4.26,7.88s9.6-.13,14.4-.23Z" transform="translate(0 -35)"/><path d="M878.13,335.67l15.69-16.26a30.163,30.163,0,0,1,5-2.28c8.66-2.15,17.34-4.24,26.06-6.14,9.07-2,18.2-3.7,27.31-5.47a8.309,8.309,0,0,1,3.7.31c-9.47,2.48-19.16,4.34-28.35,7.6-11,3.89-21.62,8.8-32.24,13.64-5.4,2.45-10.42,5.74-15.64,8.6C879.29,335.89,878.65,335.68,878.13,335.67Z" transform="translate(0 -35)"/><path d="M950.29,322.9c-27,6.26-54,12.4-77.19,28.87-1-4.79,1.59-7,5.43-8.62,10.34-4.37,20.33-9.79,31-13.13C922.7,325.89,936.32,322.92,950.29,322.9Z" transform="translate(0 -35)"/><path d="M834,379.87l15.11-15.61c3.83-3.92,7.69-7.79,11.54-11.68-.12,2,.29,4.28-.45,6-3.24,7.64-7.36,14.78-14.1,19.93a101.466,101.466,0,0,1-8.63,5.39Q835.75,381.9,834,379.87Z" transform="translate(0 -35)"/><path d="M564.12,341.05l-2.37,2.24c-2.87,1.14-5.82,2.11-8.59,3.46-8.95,4.35-17.86,8.77-26.69,13.35-2.09,1.08-3.8,2.91-5.68,4.39l-2.08-1.84c1.92-2,3.49-4.75,5.83-6,9.71-5.17,19.53-10.15,29.57-14.63C557,340.73,560.76,341.32,564.12,341.05Z" transform="translate(0 -35)"/><path d="M217.25,392.22l5.51-5.64h6.72c.09-1.17.18-2.3.28-3.44l12.83,13.15c-3.4.24-6.85,1-10.19.62A104.879,104.879,0,0,1,218.94,394C218.27,393.83,217.81,392.83,217.25,392.22Z" transform="translate(0 -35)"/><path d="M651.23,421.24c-1.33,2.48-5.23,4.11-3.48,7.6,2,3.94,4.31,7.78,9.07,9.26,7.46,2.33,14-.14,17.88-6.93.65-1.15,1.72-2.12,2.2-3.33,1.21-3.1,2.45-6.44.08-9.42-3.46-4.33-7.68-7-13.46-4.15,4.71-4,6.44-4.1,11.16-.42,7.66,6,7.63,12.61,1.07,19.91-5.5,6.12-11.46,9.38-19.7,7.36-5-1.24-10-6.77-10.4-12C645.34,425.14,647.22,422.36,651.23,421.24Z" transform="translate(0 -35)"/><path d="M370.7,446.16c-1.08-.18-2.53,0-3.19-.6-5.2-5-10.37-10-15.23-15.34-.66-.72.16-3.26.86-4.66,4.58-9.15,8.32-9.83,15.43-7.26a26.05,26.05,0,0,1,12.76,10.09c3.36,5,3.09,8.27-.73,12.82C378.07,444.21,375,446.46,370.7,446.16Zm-2-1.6a12.68,12.68,0,0,0,11.83-8.09c1.19-3.29-.67-7.82-4.37-10.71-1.05-.82-2.06-1.7-3.06-2.58-3.28-2.9-11-4.19-14-2.35-5.77,3.45-6.54,9.16-1.87,13.51,2.07,1.93,4,4,6.12,5.89s4.2,3.38,5.39,4.33Z" transform="translate(0 -35)"/><path d="M465.26,440.32l2.6-3.21c3.31,1.92,5.14,8.32,3.9,13-1.13,4.3-4.67,4.46-7.82,4.15-3.52-.33-6.95-1.69-10.41-2.6l2.1-2c1.73.15,3.48.17,5.18.47,5.77,1,6.9.32,8.73-6l-5.92-1.18Z" transform="translate(0 -35)"/><path d="M344.62,417c1.64-2.39,2.69-4.55,4.3-6.14,3.35-3.27,3.23-5.88-1-8.35-3.12-1.82-6.38-3.42-9-4.8,6.46-.74,15.46,4.56,18.41,9.52Z" transform="translate(0 -35)"/><path d="M518.71,362.65l2.08,1.84c0,6.15,6,7.09,9.18,10.51l-2.83,3.06C520.45,377.17,515.89,368.83,518.71,362.65Z" transform="translate(0 -35)"/><path d="M230.32,379.16l-1.43,1.26c-3.62,1.11-4.12-2.4-5.8-4a18.39,18.39,0,0,1-5.76-12.24c3.53,3.69,7.2,7.42,10.73,11.28a21.78,21.78,0,0,1,2.26,3.7Z" transform="translate(0 -35)"/><path d="M291.84,371.55c.73-2.55,1.5-5.22,2.28-7.9.1,8.78,9.22,7.28,13.86,12Z" transform="translate(0 -35)"/><path d="M527.14,378.06,530,375l1.93.77,6.46,6.32C534.87,383.2,530.63,381.68,527.14,378.06Z" transform="translate(0 -35)"/><path d="M682.19,409.36l12.43,10.2C687.6,419.09,683.89,416.15,682.19,409.36Z" transform="translate(0 -35)"/><path d="M278.34,331.15l-1.55,1.48-9.45-6.1.55-1c3.5,1.37,7,2.72,10.47,4.17C278.53,329.72,278.36,330.63,278.34,331.15Z" transform="translate(0 -35)"/><path d="M751.84,323.5c1.56-5,6.38-9.32,12.6-10.83Z" transform="translate(0 -35)"/><path d="M702,416c1.13-3.41,2.27-6.82,3.54-10.66,4.77,5.07-1.75,7.5-1.62,11.22Z" transform="translate(0 -35)"/><path d="M239.28,370,238,371.51l-3.18-9.86,1-.31Z" transform="translate(0 -35)"/></g></g></svg>